<svg xmlns="http://www.w3.org/2000/svg" xmlns:xlink="http://www.w3.org/1999/xlink" data-name="Layer 1" width="1097.0999755859375" height="811.8099975585938"><rect id="backgroundrect" width="100%" height="100%" x="0" y="0" fill="none" stroke="none"/><defs><linearGradient id="1c2fe1a5-71ac-4c34-8a58-b17380e220b9" x1="0.49998703598976135" y1="0.9999746084213257" x2="0.49998703598976135" y2="-0.00006372756615746766"><stop offset="0" stop-color="gray" stop-opacity="0.25"/><stop offset="0.54" stop-color="gray" stop-opacity="0.12"/><stop offset="1" stop-color="gray" stop-opacity="0.1"/></linearGradient></defs><title>forgot password</title><g class="currentLayer" style=""><title>Layer 1</title><g opacity="0.1" id="svg_1" class="" fill-opacity="1" fill="#f7890c"><path d="M878.4599992370605,575.1500015258789 S800.1399992370606,564.980001525879 858.5499992370605,691.7400015258789 c0,0 53.23,-22.81 55.35,-74.26 a40.94,40.94 0 0 0 -34.33,-42.17 z" fill="#f7890c" id="svg_2"/><path d="M879.6099992370605,574.9600015258789 s17.73,70.68 -21,116.79 " fill="#f7890c" stroke="#535461" stroke-miterlimit="10" id="svg_3"/><path d="M857.5499992370605,698.2800015258789 s28.2,-69.5 80.86,-95.28 A113.65,113.65 0 0 0 990.0199992370606,552.9000015258789 a191.13,191.13 0 0 0 12.93,-32.47 " fill="#f7890c" stroke="#535461" stroke-miterlimit="10" stroke-width="2" id="svg_4"/><path d="M1036.0399992370606,504.00000152587893 c-5.49,6.9 -33.9,17 -33.9,17 s3.42,-30 8.91,-36.85 a16,16 0 1 1 25,19.88 z" fill="#f7890c" id="svg_5"/><path d="M1026.2899992370606,558.6500015258789 c-8.36,2.81 -37.68,-4.18 -37.68,-4.18 s19.15,-23.28 27.51,-26.09 a16,16 0 1 1 10.17,30.27 z" fill="#f7890c" id="svg_6"/><path d="M973.4299992370607,623.2600015258789 c-8.63,-1.79 -30.42,-22.63 -30.42,-22.63 s28.28,-10.43 36.92,-8.64 a16,16 0 0 1 -6.5,31.26 z" fill="#f7890c" id="svg_7"/><path d="M922.4299992370605,663.1400015258789 c-8.81,-0.31000000000000005 -33.81,-17.16 -33.81,-17.16 S914.7399992370606,630.9000015258789 923.5499992370605,631.220001525879 a16,16 0 0 1 -1.12,31.91 z" fill="#f7890c" id="svg_8"/><path d="M961.3099992370605,534.9000015258789 c1.13,8.75 20.22,32.07 20.22,32.07 s12.57,-27.4 11.45,-36.15 a16,16 0 1 0 -31.67,4.08 z" fill="#f7890c" id="svg_9"/><path d="M902.2499992370606,582.340001525879 c3.6900000000000004,8 28.89,24.55 28.89,24.55 s3.8,-29.91 0.11000000000000001,-37.91 a16,16 0 1 0 -29,13.37 z" fill="#f7890c" id="svg_10"/><path d="M851.1699992370606,636.2800015258789 c2.2800000000000002,8.52 24.33,29.08 24.33,29.08 s8.8,-28.83 6.51,-37.35 a16,16 0 1 0 -30.84,8.27 z" fill="#f7890c" id="svg_11"/><path d="M1036.0399992370606,504.00000152587893 c-5.49,6.9 -33.9,17 -33.9,17 s3.42,-30 8.91,-36.85 a16,16 0 1 1 25,19.88 z" opacity="0.25" id="svg_12" fill="#f7890c"/><path d="M1026.2899992370606,558.6500015258789 c-8.36,2.81 -37.68,-4.18 -37.68,-4.18 s19.15,-23.28 27.51,-26.09 a16,16 0 1 1 10.17,30.27 z" opacity="0.25" id="svg_13" fill="#f7890c"/><path d="M973.4299992370607,623.2600015258789 c-8.63,-1.79 -30.42,-22.63 -30.42,-22.63 s28.28,-10.43 36.92,-8.64 a16,16 0 0 1 -6.5,31.26 z" opacity="0.25" id="svg_14" fill="#f7890c"/><path d="M922.4299992370605,663.1400015258789 c-8.81,-0.31000000000000005 -33.81,-17.16 -33.81,-17.16 S914.7399992370606,630.9000015258789 923.5499992370605,631.220001525879 a16,16 0 0 1 -1.12,31.91 z" opacity="0.25" id="svg_15" fill="#f7890c"/><path d="M961.3099992370605,534.9000015258789 c1.13,8.75 20.22,32.07 20.22,32.07 s12.57,-27.4 11.45,-36.15 a16,16 0 1 0 -31.67,4.08 z" opacity="0.25" id="svg_16" fill="#f7890c"/><path d="M902.2499992370606,582.340001525879 c3.6900000000000004,8 28.89,24.55 28.89,24.55 s3.8,-29.91 0.11000000000000001,-37.91 a16,16 0 1 0 -29,13.37 z" opacity="0.25" id="svg_17" fill="#f7890c"/><path d="M851.1699992370606,636.2800015258789 c2.2800000000000002,8.52 24.33,29.08 24.33,29.08 s8.8,-28.83 6.51,-37.35 a16,16 0 1 0 -30.84,8.27 z" opacity="0.25" id="svg_18" fill="#f7890c"/><path d="M895.1099992370605,729.9000015258789 s28.2,-69.5 80.86,-95.28 A113.65,113.65 0 0 0 1027.5499992370605,584.5100015258789 a191.13,191.13 0 0 0 12.93,-32.47 " fill="#f7890c" stroke="#535461" stroke-miterlimit="10" stroke-width="2" id="svg_19"/><path d="M1073.5499992370605,535.600001525879 c-5.49,6.9 -33.9,17 -33.9,17 s3.42,-30 8.91,-36.85 a16,16 0 0 1 25,19.88 z" fill="#f7890c" id="svg_20"/><path d="M1063.8199992370605,590.2500015258789 c-8.36,2.81 -37.68,-4.18 -37.68,-4.18 s19.15,-23.28 27.51,-26.09 a16,16 0 0 1 10.17,30.27 z" fill="#f7890c" id="svg_21"/><path d="M1010.9599992370606,654.9000015258789 c-8.63,-1.79 -30.42,-22.63 -30.42,-22.63 s28.28,-10.43 36.92,-8.64 a16,16 0 0 1 -6.5,31.26 z" fill="#f7890c" id="svg_22"/><path d="M959.9499992370605,694.730001525879 c-8.81,-0.31000000000000005 -33.81,-17.16 -33.81,-17.16 s26.12,-15.06 34.93,-14.75 a16,16 0 0 1 -1.12,31.91 z" fill="#f7890c" id="svg_23"/><path d="M998.8299992370605,566.5400015258789 c1.13,8.75 20.22,32.07 20.22,32.07 s12.57,-27.4 11.45,-36.15 a16,16 0 1 0 -31.67,4.08 z" fill="#f7890c" id="svg_24"/><path d="M939.7799992370606,613.9000015258789 c3.6900000000000004,8 28.89,24.55 28.89,24.55 s3.8,-29.91 0.11000000000000001,-37.91 a16,16 0 0 0 -29,13.37 z" fill="#f7890c" id="svg_25"/><path d="M888.6999992370605,667.9000015258789 c2.2800000000000002,8.52 24.33,29.08 24.33,29.08 s8.8,-28.83 6.51,-37.35 A16,16 0 0 0 888.6999992370605,667.9000015258789 z" fill="#f7890c" id="svg_26"/></g><path d="M11.849999237060544,429.9700015258789 c17.36,74.2 54.11,138.34 112.19,169.43 c120.7,64.61 392.91,31.29 596.07,-7 A465.21,465.21 0 0 0 984.6399992370605,441.2000015258789 z" fill="#f7890c" opacity="0.1" id="svg_27" class="" fill-opacity="1"/><path d="M1077.1999992370606,80.71000152587891 H965.7299992370605 a9.63,9.63 0 1 1 0,-19.27 h19.27 a9.63,9.63 0 0 1 0,-19.27 h-13.76 a9.63,9.63 0 0 1 0,-19.27 h58.18 c-12.91,-6 -28,-10.27 -45.38,-12.51 c-158.64,-20.38 -215.28,-6.9 -235.26,7 c-24.65,17.1 -52.15,29.68 -81.54,35.74 C569.3499992370605,73.30000152587891 386.29999923706055,97.6000015258789 220.38999923706052,45.33000152587891 c-82.46,-26 -143.75,17.92 -180.48,91.28 H1096.5499992370605 c-1.3800000000000001,-21.32 -5.51,-41 -13.09,-58.24 A9.58,9.58 0 0 1 1077.1999992370606,80.71000152587891 z" fill="#f7890c" opacity="0.1" id="svg_28" class="" fill-opacity="1"/><path d="M2.3899992370605503,275.1000015258789 a491.06,491.06 0 0 0 4.33,129.46 l978.68,35.79 a460,460 0 0 0 68,-103.7 zm387.08,92.35 H370.1999992370605 a9.63,9.63 0 0 1 0,19.27 H258.72999923706055 a9.63,9.63 0 1 1 0,-19.27 h19.27 a9.63,9.63 0 0 1 0,-19.27 H264.23999923706054 a9.63,9.63 0 0 1 0,-19.27 H375.7099992370606 a9.63,9.63 0 1 1 0,19.27 h13.76 a9.63,9.63 0 0 1 0,19.27 z" fill="#f7890c" opacity="0.1" id="svg_29" class="" fill-opacity="1" stroke="none"/><path d="M1096.5999992370605,137.2800015258789 l-1068.49,26 C15.11999923706054,196.6900015258789 6.549999237060547,234.4600015258789 2.549999237060547,273.6100015258789 H1077.8799992370605 a456.46,456.46 0 0 0 15.53,-70.33 C1096.6099992370605,180.2700015258789 1097.8899992370605,158.01000152587892 1096.5999992370605,137.2800015258789 zM219.46999923706056,222.45000152587892 H200.19999923706055 a9.63,9.63 0 0 1 0,19.27 H88.72999923706055 a9.63,9.63 0 1 1 0,-19.27 h19.27 a9.63,9.63 0 0 1 0,-19.27 H94.23999923706054 a9.63,9.63 0 0 1 0,-19.27 H205.70999923706057 a9.63,9.63 0 1 1 0,19.27 h13.76 a9.63,9.63 0 0 1 0,19.27 z" fill="#f7890c" opacity="0.1" id="svg_30" class="" fill-opacity="1"/><path d="M938.6799992370605,811.3000015258789 S894.1199992370606,566.9000015258789 809.1499992370606,527.2400015258789 c-72,-33.63 -149.86,-56.3 -172,-62.45 A95.61,95.61 0 0 0 625.7399992370606,449.9000015258789 c-30.26,-31.59 -48.44,-31 -51.38,-30.61 a153.83,153.83 0 0 1 -3,-19 c-0.09000000000000002,-1 -0.18000000000000002,-1.9300000000000002 -0.26,-2.92 l0.26,-0.13 c-0.18000000000000002,-1.8900000000000001 -0.3400000000000001,-3.84 -0.48000000000000004,-5.85 a150.6,150.6 0 0 0 33.79,-24.61 c0.13,0.43000000000000005 0.24000000000000002,0.8600000000000001 0.38000000000000006,1.3 q32.71,-27.65 64.07,-56.8 c6,-5.61 12.3,-11.7 14.34,-19.61 a28.78,28.78 0 0 0 0.7500000000000001,-8.32 c0.27,-6 -1.15,-12.13 -1.3900000000000001,-18.21 c0,-1 0.11000000000000001,-1.9300000000000002 0.24000000000000002,-2.88 c1.4,-9.95 8.32,-18.12 14,-26.47 a124.82,124.82 0 0 0 21.23,-71.46 a121,121 0 0 0 -5,-36 c-4.43,-14.82 -13.65,-30.39 -29,-33.63 c-5.94,-1.25 -12.11,-0.47000000000000003 -18.17,-0.8600000000000001 c-25.09,-1.6 -43.87,-22 -63.88,-36.95 a168.61,168.61 0 0 0 -83.58,-32.44 c-9.45,-1 -19.21,-1.07 -28.2,1.9300000000000002 c-20.19,6.72 -32.45,27.47 -51.9,36 c-14.38,6.34 -31,5.3100000000000005 -46,10.07 c-22.33,7.1 -41.28,30 -41.78,53.53 c0,0.8700000000000001 0,1.7400000000000002 0,2.6100000000000003 c0,0.15000000000000002 0,0.30000000000000004 0,0.44000000000000006 c-0.25,11.89 4,24 4.34,36.17 q0,1.6500000000000001 0.05000000000000001,3.31 c-0.11000000000000001,13.14 -1.6800000000000002,26.32 -6.47,38.67 c-2.58,6.65 -5.9,14.35 -5.36,21 c-0.30000000000000004,4.07 0.49000000000000005,7.890000000000001 3.3200000000000003,11 l4.83,-4.26 a146,146 0 0 0 -2.43,26.58 c0,44.94 20.44,85.18 52.68,112.26 q0.28,4.49 0.54,9.620000000000001 c0.7600000000000001,14.82 1.36,33.41 1.19,53.67 l-47.16,43.35 l-121.24,55 s-110.88,23.42 -87,179.19 l11.4,96.72 H260.6999992370605 l-0.23,0.51 H410.71999923706056 l0.09000000000000002,-0.51 H768.2899992370606 l-0.07,0.51 h14 v-0.51 zM575.2499992370606,421.7700015258789 a103.92,103.92 0 0 1 7.2,19.8 a81.11,81.11 0 0 1 -7.77,-20.88 l0.15000000000000002,0.27 zm-171.82,20 q0,2.8600000000000003 -0.1,5.77 l-0.24000000000000002,0.3400000000000001 A49,49 0 0 1 403.42999923706054,441.7200015258789 z" fill="url(#1c2fe1a5-71ac-4c34-8a58-b17380e220b9)" id="svg_31"/><path d="M614.7999992370605,466.3000015258789 l-20,191 l-107,34 s-139,-26 -103,-101 c25.61,-53.35 24.9,-148.69 22.36,-199.29 c-1,-20.54 -2.36,-33.71 -2.36,-33.71 s182,-159 167,-16 c-2.9,27.69 -3.07,49.34 -1.46,66.26 C577.0899992370605,478.00000152587893 614.7999992370605,466.3000015258789 614.7999992370605,466.3000015258789 z" fill="#fdc2cc" id="svg_32"/><path d="M614.7999992370605,466.3000015258789 l-20,191 l-107,34 s-139,-26 -103,-101 c25.61,-53.35 24.9,-148.69 22.36,-199.29 c-1,-20.54 -2.36,-33.71 -2.36,-33.71 s182,-159 167,-16 c-2.9,27.69 -3.07,49.34 -1.46,66.26 C577.0899992370605,478.00000152587893 614.7999992370605,466.3000015258789 614.7999992370605,466.3000015258789 z" opacity="0.03" id="svg_33"/><path d="M571.7999992370605,338.3000015258789 c-2.9,27.69 -3.07,49.34 -1.46,66.26 a145.07,145.07 0 0 1 -163.18,-16.55 c-1,-20.54 -2.36,-33.71 -2.36,-33.71 S586.7999992370605,195.3000015258789 571.7999992370605,338.3000015258789 z" opacity="0.1" id="svg_34"/><circle cx="500.79998779296875" cy="271.30999755859375" r="145" fill="#fdc2cc" id="svg_35"/><circle cx="500.79998779296875" cy="271.30999755859375" r="145" opacity="0.03" id="svg_36"/><path d="M924.7999992370605,811.3000015258789 h-752 l-11,-95 c-23,-153 84,-176 84,-176 l117,-54 l46.5,-43.5 c-15,57 98.5,175.5 98.5,175.5 l0,0 a26.88,26.88 0 0 0 2.07,-2.15 c3.06,-3.34 10.37,-11.7 27.49,-32.44 c6.12,-7.43 13.51,-16.44 22.41,-27.38 c42.8,-52.6 20.84,-114.75 14.28,-127.6 l-0.41000000000000003,-0.8 c-0.25,-0.46 -0.44000000000000006,-0.8300000000000001 -0.5900000000000001,-1.09 a0,0 0 0 0 0,0 a1.6300000000000001,1.6300000000000001 0 0 0 -0.15000000000000002,-0.27 a1.59,1.59 0 0 1 -0.11000000000000001,-0.2 l55,43 s2.11,0.56 6,1.6600000000000001 c21.4,6 96.58,28.31 166,61.34 C881.7999992370605,571.3000015258789 924.7999992370605,811.3000015258789 924.7999992370605,811.3000015258789 z" fill="#f7941d" id="svg_37" class="" fill-opacity="1"/><path d="M266.13332748413086,307.6333250045776 c-9,-9 -70,-20 -70,-20 c2,24 -72,61 -72,61 l5.5,188 H94.15332748413084 l-6,-169 l17,-24 l0,0 l2.07,-2.15 a330,330 0 0 0 27.49,-32.44 c6.12,-7.43 13.51,-16.44 22.41,-27.38 c42.8,-52.6 20.84,-114.75 14.28,-127.6 l-0.4100000000000002,-0.8 c-0.2400000000000001,-0.4700000000000002 -0.4300000000000002,-0.8300000000000004 -0.5900000000000004,-1.09 a0,0 0 0 0 0,0 a1.6300000000000003,1.6300000000000003 0 0 0 -0.1500000000000001,-0.27 a1.59,1.59 0 0 1 -0.11000000000000006,-0.2 h0 s18,-4 50,30 a93.75,93.75 0 0 1 11,14.66 C257.14332748413085,238.08332500457766 274.0633274841308,315.5633250045777 266.13332748413086,307.6333250045776 z" fill="none" id="svg_38" class="" transform="rotate(-28.676834106445312 178.12701416015645,344.09573364257824) "/><path d="M1047.4666557312012,342.3000015258789 c-9,-9 -70,-20 -70,-20 c2,24 -72,61 -72,61 l5.5,188 H875.4866557312012 l-6,-169 l17,-24 l0,0 l2.07,-2.15 a330,330 0 0 0 27.49,-32.44 c6.12,-7.43 13.51,-16.44 22.41,-27.38 c42.8,-52.6 20.84,-114.75 14.28,-127.6 l-0.4100000000000001,-0.8 c-0.24000000000000005,-0.4700000000000001 -0.4300000000000001,-0.8300000000000002 -0.5900000000000002,-1.09 a0,0 0 0 0 0,0 a1.6300000000000003,1.6300000000000003 0 0 0 -0.15000000000000005,-0.27 a1.59,1.59 0 0 1 -0.11000000000000003,-0.2 h0 s18,-4 50,30 a93.75,93.75 0 0 1 11,14.66 C1038.4766557312012,272.75000152587893 1055.396655731201,350.23000152587895 1047.4666557312012,342.3000015258789 z" opacity="0.1" id="svg_39" class="" stroke-opacity="1" stroke="#f98807" fill="none" transform="rotate(51.62105178833008 959.4603271484376,378.7624511718749) "/><path d="M261.79999923706055,659.3000015258789 s47,96 49.5,152.5 " opacity="0.1" id="svg_40"/><polygon points="773.8 714.31 760.3 811.81 773.8 811.81 773.8 714.31" opacity="0.1" id="svg_41"/><path d="M272.29999923706055,811.8000015258789 l74.5,-169.5 s21,-40 26,-80 s32,-103 32,-103 s67,-85 98,-73 s-27,57 -27,57 s85,33 27,131 s-59,80 -59,80 l-28.5,157.5 z" opacity="0.1" id="svg_42"/><path d="M270.29999923706055,811.8000015258789 l74.5,-169.5 s21,-40 26,-80 c3.18,-25.43 15.25,-60.16 23.62,-82.09 a125.86,125.86 0 0 1 23.72,-39 c21.66,-24.24 61,-63.33 82.66,-54.93 c31,12 -27,57 -27,57 s85,33 27,131 s-59,80 -59,80 l-28.5,157.5 z" fill="#fdc2cc" id="svg_43"/><circle cx="545.2999877929688" cy="189.80999755859375" r="3" fill="#fff" opacity="0.15" id="svg_44"/><circle cx="531.2999877929688" cy="195.80999755859375" r="3" fill="#fff" opacity="0.15" id="svg_45"/><path d="M397.78999923706056,88.58000152587891 c14.47,-4.68 30.53,-3.67 44.41,-9.89 c18.77,-8.42 30.6,-28.8 50.08,-35.4 c8.68,-2.94 18.1,-2.83 27.21,-1.8900000000000001 a161.07,161.07 0 0 1 80.66,31.87 c19.31,14.69 37.43,34.72 61.64,36.29 c5.85,0.38000000000000006 11.8,-0.39000000000000007 17.53,0.8400000000000001 c14.84,3.18 23.73,18.47 28,33 A124.26,124.26 0 0 1 691.6599992370606,246.00000152587893 c-5.48,8.2 -12.16,16.23 -13.51,26 c-1.32,9.58 2.7600000000000002,19.51 0.38000000000000006,28.89 c-2,7.77 -8,13.75 -13.84,19.26 Q634.4399992370605,348.7600015258789 602.8599992370605,375.9000015258789 c-10.94,-34.76 5.11,-72.19 2.6100000000000003,-108.54 c-1,-14.16 -6,-29.62 -18.49,-36.3 c-11.69,-6.24 -26.63,-3 -38.46,-9 c-13.2,-6.65 -18.62,-22.4 -28.6,-33.3 c-17,-18.6 -46.51,-21 -70.28,-12.6 s-43.2,25.68 -62,42.53 l-34.17,30.65 c-6.67,-7.52 -1.61,-19.06 2,-28.46 c5.38,-14.09 6.5600000000000005,-29.28 6.2,-44.24 c-0.29000000000000004,-12 -4.43,-23.85 -4.19,-35.53 C357.9599992370606,118.0700015258789 376.23999923706054,95.55000152587891 397.78999923706056,88.58000152587891 z" opacity="0.1" id="svg_46"/><path d="M397.78999923706056,85.58000152587891 c14.47,-4.68 30.53,-3.67 44.41,-9.89 c18.77,-8.42 30.6,-28.8 50.08,-35.4 c8.68,-2.94 18.1,-2.83 27.21,-1.8900000000000001 a161.07,161.07 0 0 1 80.66,31.87 c19.31,14.69 37.43,34.72 61.64,36.29 c5.85,0.38000000000000006 11.8,-0.39000000000000007 17.53,0.8400000000000001 c14.84,3.18 23.73,18.47 28,33 A124.26,124.26 0 0 1 691.6599992370606,243.00000152587893 c-5.48,8.2 -12.16,16.23 -13.51,26 c-1.32,9.58 2.7600000000000002,19.51 0.38000000000000006,28.89 c-2,7.77 -8,13.75 -13.84,19.26 Q634.4399992370605,345.7600015258789 602.8599992370605,372.9000015258789 c-10.94,-34.76 5.11,-72.19 2.6100000000000003,-108.54 c-1,-14.16 -6,-29.62 -18.49,-36.3 c-11.69,-6.24 -26.63,-3 -38.46,-9 c-13.2,-6.65 -18.62,-22.4 -28.6,-33.3 c-17,-18.6 -46.51,-21 -70.28,-12.6 s-43.2,25.68 -62,42.53 l-34.17,30.65 c-6.67,-7.52 -1.61,-19.06 2,-28.46 c5.38,-14.09 6.5600000000000005,-29.28 6.2,-44.24 c-0.29000000000000004,-12 -4.43,-23.85 -4.19,-35.53 C357.9599992370606,115.0700015258789 376.23999923706054,92.55000152587891 397.78999923706056,85.58000152587891 z" fill="#000333" id="svg_47" class="" fill-opacity="1"/></g></svg>